#!OML:ASF F:\VICON\USERDATA\INSTALL\rory3\rory3.ASF
:FULLY-SPECIFIED
:DEGREES
782
root 1.46439 23.4903 0.118926 23.6784 -5.57241 -7.36682
lowerback 11.7979 -0.248224 7.50418
upperback -0.973252 0.86051 1.57184
thorax -7.60716 0.142709 -2.71321
lowerneck -13.779 -1.01266 -4.1038
upperneck 29.565 -0.9779 1.91874
head 12.0193 -0.666438 1.28749
rclavicle -2.03754e-014 3.15074e-014
rhumerus -89.8804 8.97826 -94.9247
rradius 31.0352
rwrist 26.1601
rhand -7.53786 -22.315
rfingers 7.12502
rthumb 18.3535 -771.469
lclavicle -2.03754e-014 3.15074e-014
lhumerus -84.9754 -19.8155 87.6688
lradius 27.3462
lwrist -2.23332
lhand 1.25479 -26.6182
lfingers 7.12502
lthumb 26.7917 1.50423
rfemur -88.6225 -27.267 23.4272
rtibia 149.442
rfoot 6.89905 24.5639
rtoes -23.2895
lfemur -82.5923 64.5686 -6.02694
ltibia 155.574
lfoot -6.64739 -12.6429
ltoes -9.96939
783
root 1.45945 23.481 0.0610169 24.3917 -5.47232 -7.35029
lowerback 11.9035 -0.228467 7.25066
upperback -1.08894 0.870204 1.60913
thorax -7.79453 0.149873 -2.53386
lowerneck -13.6316 -0.932426 -3.92327
upperneck 29.069 -0.864093 1.75901
head 11.7868 -0.61117 1.2082
rclavicle -1.0138e-014 -8.94531e-015
rhumerus -88.7031 8.80203 -94.7607
rradius 30.4152
rwrist 26.1037
rhand -7.81884 -22.3168
rfingers 7.12502
rthumb 18.0831 -771.496
lclavicle -1.0138e-014 -8.94531e-015
lhumerus -83.4556 -19.6197 86.6901
lradius 26.8415
lwrist -3.06096
lhand 0.510476 -26.1939
lfingers 7.12502
lthumb 26.0792 2.0357
rfemur -90.513 -25.8536 24.909
rtibia 148.917
rfoot 4.2336 24.3054
rtoes -30.043
lfemur -90.1724 62.7821 -13.1201
ltibia 155.814
lfoot -4.70231 -11.6625
ltoes -3.63303
784
root 1.45203 23.4775 0.0173492 24.8616 -5.57828 -7.08913
lowerback 12.098 -0.179497 6.65255
upperback -1.15373 0.867333 1.58392
thorax -7.98067 0.166384 -2.22645
lowerneck -13.407 -0.862851 -3.77781
upperneck 28.6779 -0.76147 1.59837
head 11.5832 -0.566292 1.13455
rclavicle -2.85256e-014 1.32192e-014
rhumerus -87.5614 8.73418 -94.8645
rradius 29.8782
rwrist 26.1174
rhand -8.85312 -22.6535
rfingers 7.12502
rthumb 17.0878 -771.922
lclavicle -2.85256e-014 1.32192e-014
lhumerus -81.8938 -19.2572 85.6409
lradius 26.3076
lwrist -4.45122
lhand -2.6405 -27.0995
lfingers 7.12502
lthumb 23.0589 1.54088
rfemur -91.6757 -22.815 25.9887
rtibia 147.366
rfoot 5.10356 22.6312
rtoes -28.2404
lfemur -93.793 58.7849 -18.2772
ltibia 154.2
lfoot -3.00416 -10.227
ltoes -1.1181
785
root 1.448 23.4922 -0.00281524 25.3789 -5.5742 -6.92751
lowerback 11.9875 -0.197725 6.33935
upperback -1.1631 0.784157 1.53084
thorax -7.93608 0.139789 -2.09109
lowerneck -13.4029 -0.814916 -3.71771
upperneck 28.3929 -0.744275 1.72259
head 11.4706 -0.534374 1.17011
rclavicle 5.96354e-015 -1.19271e-015
rhumerus -86.1659 8.7852 -95.2988
rradius 29.0815
rwrist 26.6122
rhand -6.52017 -24.079
rfingers 7.12502
rthumb 19.3323 -773.138
lclavicle 5.96354e-015 -1.19271e-015
lhumerus -80.2927 -18.9145 84.8411
lradius 25.6839
lwrist -5.5973
lhand -6.44884 -28.0921
lfingers 7.12502
lthumb 19.4008 0.960101
rfemur -91.8644 -19.5631 26.832
rtibia 145.157
rfoot 4.59486 20.145
rtoes -28.4059
lfemur -95.5105 51.8857 -22.0177
ltibia 151.719
lfoot -1.63188 -6.94535
ltoes 10.6006
786
root 1.44485 23.4986 -0.0242363 25.9229 -5.49001 -6.88081
lowerback 11.8296 -0.253057 6.24049
upperback -1.15136 0.67827 1.47388
thorax -7.84147 0.0944629 -2.07588
lowerneck -13.5165 -0.772977 -3.66373
upperneck 28.2377 -0.71842 1.80874
head 11.4324 -0.504909 1.19473
rclavicle 3.08116e-015 1.64991e-014
rhumerus -84.5476 8.94542 -96.0121
rradius 27.9957
rwrist 27.3344
rhand -9.74516 -24.5545
rfingers 7.12502
rthumb 16.229 -773.895
lclavicle 3.08116e-015 1.64991e-014
lhumerus -78.6394 -18.6457 84.2721
lradius 24.9249
lwrist -7.21498
lhand -9.14937 -28.9964
lfingers 7.12502
lthumb 16.8026 0.296614
rfemur -91.6442 -16.192 27.6296
rtibia 142.485
rfoot 3.41162 16.9171
rtoes -30.4956
lfemur -95.108 44.1782 -23.8496
ltibia 148.203
lfoot -1.77648 -4.16411
ltoes 9.21321
787
root 1.44153 23.4946 -0.0484511 26.2856 -5.34489 -6.89127
lowerback 12.0201 -0.339563 6.19364
upperback -1.27019 0.579547 1.49184
thorax -8.088 0.0399834 -2.01272
lowerneck -13.2552 -0.722795 -3.78062
upperneck 28.1585 -0.639784 1.85014
head 11.3471 -0.477599 1.2398
rclavicle -9.14409e-015 -1.64991e-014
rhumerus -83.1982 9.18614 -96.8044
rradius 26.8211
rwrist 28.2069
rhand -9.34097 -26.0196
rfingers 7.12502
rthumb 16.6182 -775.328
lclavicle -9.14409e-015 -1.64991e-014
lhumerus -77.2642 -18.3329 83.9562
lradius 24.1938
lwrist -9.64197
lhand -10.0237 -28.7365
lfingers 7.12502
lthumb 15.9608 0.625931
rfemur -90.9203 -13.2544 28.2764
rtibia 139.419
rfoot 2.71299 13.4084
rtoes -27.7341
lfemur -93.4479 36.9183 -24.2061
ltibia 143.988
lfoot -2.61076 -1.82107
ltoes 5.05279
788
root 1.4395 23.4882 -0.0632632 26.517 -5.11581 -7.02122
lowerback 12.2837 -0.435081 6.2993
upperback -1.37034 0.503046 1.58922
thorax -8.35537 -0.00872436 -1.95381
lowerneck -13.1222 -0.694539 -4.09584
upperneck 28.2654 -0.591157 2.07247
head 11.3613 -0.463901 1.38321
rclavicle 2.14687e-014 2.18663e-015
rhumerus -81.778 9.52652 -97.5483
rradius 25.7347
rwrist 28.8676
rhand -12.7304 -27.8406
rfingers 7.12502
rthumb 13.353 -777.393
lclavicle 2.14687e-014 2.18663e-015
lhumerus -76.1849 -18.3826 84.5785
lradius 23.6672
lwrist -11.0494
lhand -11.9944 -28.7637
lfingers 7.12502
lthumb 14.0624 0.740492
rfemur -89.5585 -10.7429 28.7977
rtibia 135.915
rfoot 2.01004 10.2398
rtoes -26.1425
lfemur -91.5725 30.3639 -23.7267
ltibia 139.375
lfoot -3.59545 -0.168334
ltoes 0.735612
789
root 1.43538 23.4733 -0.0634277 26.6591 -4.87552 -7.12858
lowerback 12.2093 -0.52013 6.36965
upperback -1.24826 0.396812 1.70088
thorax -8.18949 -0.0536022 -1.85429
lowerneck -13.1276 -0.642665 -4.36007
upperneck 28.2067 -0.506461 2.26838
head 11.3378 -0.429368 1.51147
rclavicle -3.21037e-014 -6.55989e-015
rhumerus -80.0061 9.78934 -97.8408
rradius 24.9584
rwrist 29.4624
rhand -13.0323 -28.9647
rfingers 7.12502
rthumb 13.062 -778.536
lclavicle -3.21037e-014 -6.55989e-015
lhumerus -74.957 -18.7563 85.7525
lradius 23.2852
lwrist -11.2821
lhand -14.7421 -29.7095
lfingers 7.12502
lthumb 11.4134 -0.0401149
rfemur -87.6892 -8.85601 29.1144
rtibia 132.098
rfoot 0.944196 7.55196
rtoes -25.7981
lfemur -89.5669 25.0029 -22.9839
ltibia 134.437
lfoot -4.3187 0.816229
ltoes -2.40021
790
root 1.42943 23.4562 -0.0503313 26.7538 -4.57464 -7.20246
lowerback 11.8114 -0.611592 6.4178
upperback -0.988046 0.24394 1.82458
thorax -7.6926 -0.108383 -1.7233
lowerneck -13.1195 -0.576364 -4.49477
upperneck 27.9736 -0.400957 2.35336
head 11.243 -0.383096 1.57707
rclavicle 1.50082e-014 1.98785e-016
rhumerus -78.0472 10.0088 -97.8921
rradius 24.2849
rwrist 29.9928
rhand -13.0449 -29.9847
rfingers 7.12502
rthumb 13.0499 -779.556
lclavicle 1.50082e-014 1.98785e-016
lhumerus -73.2621 -18.9985 86.5105
lradius 22.9459
lwrist -11.6848
lhand -15.7983 -29.671
lfingers 7.12502
lthumb 10.3947 0.05202
rfemur -85.6393 -7.49048 29.3281
rtibia 128.032
rfoot -0.156046 5.40172
rtoes -26.4285
lfemur -87.5444 20.7756 -22.1468
ltibia 129.28
lfoot -4.666 1.18531
ltoes -6.47579
791
root 1.42307 23.4372 -0.0468418 26.7269 -4.28414 -7.20825
lowerback 11.6735 -0.693084 6.37845
upperback -0.766852 0.113995 1.92943
thorax -7.3855 -0.15534 -1.56879
lowerneck -13.1754 -0.575049 -4.55113
upperneck 27.9161 -0.379697 2.34799
head 11.2317 -0.379034 1.58709
rclavicle -1.59028e-015 2.24627e-014
rhumerus -76.0327 10.0918 -97.6901
rradius 23.5621
rwrist 30.4354
rhand -13.5062 -30.8195
rfingers 7.12502
rthumb 12.6052 -780.419
lclavicle -1.59028e-015 2.24627e-014
lhumerus -71.6878 -19.4812 87.6968
lradius 22.5908
lwrist -11.6984
lhand -16.3261 -29.0906
lfingers 7.12502
lthumb 9.88551 0.657278
rfemur -83.6743 -6.50391 29.4225
rtibia 123.8
rfoot -0.429856 4.04958
rtoes -26.2727
lfemur -85.6151 17.5706 -21.3553
ltibia 124.045
lfoot -5.22359 0.915311
ltoes -11.5006
792
root 1.41402 23.3971 -0.0527378 26.4984 -4.11562 -7.01009
lowerback 11.884 -0.787814 6.01813
upperback -0.662146 -0.0464934 1.98414
thorax -7.40253 -0.216567 -1.27975
lowerneck -12.87 -0.521205 -4.50685
upperneck 27.8614 -0.289336 2.20534
head 11.146 -0.351859 1.53753
rclavicle -1.17283e-014 -3.3197e-014
rhumerus -74.2563 10.0269 -97.2261
rradius 23.0331
rwrist 30.7117
rhand -14.084 -31.3936
rfingers 7.12502
rthumb 12.0481 -781.027
lclavicle -1.17283e-014 -3.3197e-014
lhumerus -70.6544 -20.2002 89.4393
lradius 22.3907
lwrist -11.1032
lhand -18.7127 -29.4089
lfingers 7.12502
lthumb 7.58251 0.435195
rfemur -81.7105 -5.87428 29.2554
rtibia 119.55
rfoot -0.359375 3.36749
rtoes -25.3559
lfemur -83.5541 15.263 -20.8768
ltibia 118.844
lfoot -6.27651 0.352649
ltoes -16.5778
793
root 1.40099 23.3363 -0.0472136 26.4254 -3.9944 -6.85717
lowerback 11.8457 -0.849168 5.61194
upperback -0.684795 -0.181428 2.06567
thorax -7.41075 -0.265059 -0.941035
lowerneck -12.4827 -0.431584 -4.41037
upperneck 27.8791 -0.136232 1.95796
head 11.0696 -0.304583 1.44953
rclavicle -3.8763e-015 -2.18663e-015
rhumerus -72.7048 9.88234 -96.7081
rradius 22.6771
rwrist 30.5037
rhand -14.9876 -32.0765
rfingers 7.12502
rthumb 11.1767 -781.759
lclavicle -3.8763e-015 -2.18663e-015
lhumerus -69.5916 -20.6815 90.6187
lradius 22.4217
lwrist -10.7851
lhand -22.3424 -30.8215
lfingers 7.12502
lthumb 4.07813 -0.880786
rfemur -79.9173 -5.28273 29.1055
rtibia 115.242
rfoot -0.0639991 2.93159
rtoes -25.2261
lfemur -81.5714 13.668 -20.5114
ltibia 113.698
lfoot -6.57571 -0.418133
ltoes -21.5236
